<?xml version="1.0" encoding="UTF-8" standalone="no"?>
<svg width="50px" height="50px" viewBox="0 0 50 50" version="1.1" xmlns="http://www.w3.org/2000/svg" xmlns:xlink="http://www.w3.org/1999/xlink">
    <!-- Generator: Sketch 39.1 (31720) - http://www.bohemiancoding.com/sketch -->
    <title>logo-ai 2</title>
    <desc>Created with Sketch.</desc>
    <defs></defs>
    <g id="Page-1" stroke="none" stroke-width="1" fill="none" fill-rule="evenodd">
        <g id="logo-ai">
            <g id="Group">
                <path d="M21.3574219,17.2851562 C20.859375,19.4335938 19.4921875,23.2421875 18.4960938,26.2695312 L24.3554688,26.2695312 C23.6914062,24.0234375 22.0605469,19.53125 21.3867188,17.2851562 L21.3574219,17.2851562 L21.3574219,17.2851562 Z" id="Shape" fill="#271E11"></path>
                <path d="M46.6796875,3.3203125 L3.3203125,3.3203125 L3.3203125,46.6796875 L46.6796875,46.6796875 L46.6796875,3.3203125 L46.6796875,3.3203125 Z M31.4257813,35.6445312 L27.6953125,35.6445312 C27.5292969,35.6445312 27.4609375,35.5859375 27.3925781,35.4492188 L25.2636719,29.5898438 L17.6367188,29.5898438 L15.6054688,35.3808594 C15.5761719,35.5859375 15.46875,35.6445312 15.2734375,35.6445312 L11.875,35.6445312 C11.6992188,35.6445312 11.6210938,35.5859375 11.6210938,35.4492188 C11.6210938,35.4101562 11.6308594,35.3515625 11.640625,35.2929688 C13.4375,30.1953125 16.4746094,21.6894531 18.6035156,15.9179688 C18.7011719,15.5859375 18.7988281,15.2441406 18.8671875,14.0820312 C18.8671875,13.9453125 18.9648438,13.8671875 19.0625,13.8671875 L23.6621094,13.8671875 C23.828125,13.8671875 23.8574219,13.9160156 23.9257812,14.0527344 C26.3867188,20.8789062 29.0917969,28.4277344 31.6210937,35.3320312 C31.6894531,35.5273438 31.6210938,35.6445312 31.4257813,35.6445312 L31.4257813,35.6445312 Z M37.109375,35.3613281 C37.109375,35.5273438 37.0605469,35.6445312 36.8652344,35.6445312 L33.3984375,35.6445312 C33.1933594,35.6445312 33.1054688,35.5566406 33.1054688,35.3222656 L33.1054688,19.6972656 C33.1054688,19.5019531 33.1640625,19.4335938 33.3300781,19.4335938 L36.8652344,19.4335938 C37.0605469,19.4335938 37.109375,19.4628906 37.109375,19.6972656 L37.109375,35.3613281 L37.109375,35.3613281 Z M35.0976562,17.2363281 C33.7695312,17.2363281 32.8710938,16.4355469 32.8710938,15.1660156 C32.8710938,13.9355469 33.8378906,13.1054688 35.1367188,13.1054688 C36.5039062,13.1054688 37.3339844,13.9355469 37.3339844,15.1660156 C37.3242188,16.4355469 36.4257812,17.2363281 35.0976562,17.2363281 L35.0976562,17.2363281 Z" id="Shape" fill="#271E11"></path>
                <g id="Shape" fill="#F37524">
                    <path d="M0,0 L0,50 L50,50 L50,0 L0,0 L0,0 Z M46.6796875,46.6796875 L3.3203125,46.6796875 L3.3203125,3.3203125 L46.6796875,3.3203125 L46.6796875,46.6796875 L46.6796875,46.6796875 Z"></path>
                    <path d="M11.8652344,35.6445312 L15.2636719,35.6445312 C15.4589844,35.6445312 15.5664062,35.5859375 15.5957031,35.3808594 L17.6269531,29.5898438 L25.2539063,29.5898438 L27.3828125,35.4492188 C27.4511719,35.5859375 27.5195313,35.6445312 27.6855469,35.6445312 L31.4160156,35.6445312 C31.6113281,35.6445312 31.6796875,35.5273438 31.6113281,35.3222656 C29.0820313,28.4277344 26.3769531,20.8789062 23.9160156,14.0429688 C23.8476563,13.90625 23.8183594,13.8574219 23.6523438,13.8574219 L19.0527344,13.8574219 C18.9550781,13.8574219 18.8574219,13.9453125 18.8574219,14.0722656 C18.7890625,15.234375 18.6914063,15.5761719 18.59375,15.9082031 C16.4648438,21.6699219 13.4277344,30.1855469 11.6308594,35.2832031 C11.6113281,35.3417969 11.6015625,35.390625 11.6113281,35.4394531 C11.6113281,35.5761719 11.6894531,35.6445312 11.8652344,35.6445312 L11.8652344,35.6445312 Z M21.3574219,17.2851562 L21.3867188,17.2851562 C22.0507812,19.53125 23.6816406,24.0234375 24.3554688,26.2695312 L18.4960938,26.2695312 C19.4921875,23.2421875 20.859375,19.4335938 21.3574219,17.2851562 L21.3574219,17.2851562 Z"></path>
                    <path d="M35.0976562,17.2363281 C36.4355469,17.2363281 37.3339844,16.4355469 37.3339844,15.1660156 C37.3339844,13.9355469 36.5039062,13.1054688 35.1367188,13.1054688 C33.8378906,13.1054688 32.8710937,13.9355469 32.8710937,15.1660156 C32.8613281,16.4355469 33.7597656,17.2363281 35.0976562,17.2363281 L35.0976562,17.2363281 Z"></path>
                    <path d="M36.8652344,19.4335938 L33.3300781,19.4335938 C33.1640625,19.4335938 33.1054688,19.5019531 33.1054688,19.6972656 L33.1054688,35.3222656 C33.1054688,35.5566406 33.1933594,35.6445312 33.3984375,35.6445312 L36.8652344,35.6445312 C37.0605469,35.6445312 37.109375,35.5273438 37.109375,35.3613281 L37.109375,19.6972656 C37.109375,19.4628906 37.0605469,19.4335938 36.8652344,19.4335938 L36.8652344,19.4335938 Z"></path>
                </g>
            </g>
        </g>
    </g>
</svg>