<?xml version="1.0" encoding="UTF-8" standalone="no"?>
<svg width="202px" height="202px" viewBox="0 0 202 202" version="1.1" xmlns="http://www.w3.org/2000/svg" xmlns:xlink="http://www.w3.org/1999/xlink" style="background: #FFFFFF;">
    <!-- Generator: Sketch 39.1 (31720) - http://www.bohemiancoding.com/sketch -->
    <title>diamond</title>
    <desc>Created with Sketch.</desc>
    <defs></defs>
    <g id="Page-1" stroke="none" stroke-width="1" fill="none" fill-rule="evenodd" stroke-linecap="square">
        <g id="Diamond" transform="translate(1.000000, 1.000000)" stroke="#265E95">
            <path d="M100.5,80.5 L0.5,100.5" id="Line"></path>
            <path d="M100.5,0.5 L100.5,199.5" id="Line"></path>
            <path d="M0.5,100.5 L199.5,100.5" id="Line"></path>
            <path d="M100.5,0.5 L79.5,100.5" id="Line"></path>
            <path d="M79.5,100.5 L100.5,199.5" id="Line"></path>
            <path d="M60.5,100.5 L100.5,179.5" id="Line"></path>
            <path d="M40.5,100.5 L100.5,160.5" id="Line"></path>
            <path d="M20.5,100.5 L100.5,139.5" id="Line"></path>
            <path d="M0.5,100.5 L100.5,120.5" id="Line"></path>
            <path d="M119.5,100.5 L100.5,199.5" id="Line"></path>
            <path d="M100.5,0.5 L119.5,100.5" id="Line"></path>
            <path d="M100.5,20.5 L139.5,100.5" id="Line"></path>
            <path d="M100.5,39.5 L159.5,100.5" id="Line"></path>
            <path d="M100.5,60.5 L179.5,100.5" id="Line"></path>
            <path d="M100.5,80.5 L199.5,100.5" id="Line"></path>
            <path d="M139.5,100.5 L100.5,179.5" id="Line"></path>
            <path d="M159.5,100.5 L100.5,160.5" id="Line"></path>
            <path d="M179.5,100.5 L100.5,139.5" id="Line"></path>
            <path d="M199.5,100.5 L100.5,120.5" id="Line"></path>
            <path d="M100.5,20.5 L60.5,100.5" id="Line"></path>
            <path d="M100.5,39.5 L40.5,100.5" id="Line"></path>
            <path d="M100.5,60.5 L20.5,100.5" id="Line"></path>
            <path d="M100.5,60.5 L20.5,100.5" id="Line"></path>
        </g>
    </g>
</svg>