<?xml version="1.0" ?><svg enable-background="new 0 0 32 32" version="1.1" viewBox="0 0 32 32" xml:space="preserve" xmlns="http://www.w3.org/2000/svg" xmlns:xlink="http://www.w3.org/1999/xlink"><g id="style_2_copy_5"><g><g><path d="M16,31.5C7.453,31.5,0.5,24.547,0.5,16S7.453,0.5,16,0.5S31.5,7.453,31.5,16S24.547,31.5,16,31.5z" fill="#FFFFFF"/></g><g><g><path d="M16,1c8.271,0,15,6.729,15,15s-6.729,15-15,15S1,24.271,1,16S7.729,1,16,1 M16,0C7.163,0,0,7.163,0,16      s7.163,16,16,16s16-7.163,16-16S24.837,0,16,0L16,0z" fill="#00BDFF"/></g></g><g><g><path d="M16,3.007c7.165,0,12.993,5.829,12.993,12.993S23.164,28.993,16,28.993S3.007,23.164,3.007,16S8.835,3.007,16,3.007"/></g></g><g><path d="M16,3.006C8.836,3.006,3.006,8.836,3.006,16c0,3.605,1.478,6.871,3.858,9.227L25.227,6.864     C22.871,4.485,19.605,3.006,16,3.006z" fill="#FFFFFF" opacity="0.3"/></g></g><g><path d="M13.892,24.123h3.357v-8.124h2.239l0.297-2.799h-2.536l0.003-1.402c0-0.73,0.07-1.121,1.117-1.121h1.4    v-2.8h-2.24c-2.69,0-3.637,1.358-3.637,3.642V13.2h-1.677V16h1.677V24.123z" fill="#FFFFFF"/></g></g></svg>