<?xml version="1.0" encoding="UTF-8" standalone="no"?>
<svg width="45px" height="54px" viewBox="0 0 45 54" version="1.1" xmlns="http://www.w3.org/2000/svg" xmlns:xlink="http://www.w3.org/1999/xlink">
    <!-- Generator: Sketch 39.1 (31720) - http://www.bohemiancoding.com/sketch -->
    <title>Group</title>
    <desc>Created with Sketch.</desc>
    <defs></defs>
    <g id="Page-1" stroke="none" stroke-width="1" fill="none" fill-rule="evenodd">
        <g id="HTML5" transform="translate(-10.000000, 0.000000)">
            <g id="Group">
                <g transform="translate(14.000000, 11.000000)" id="Shape">
                    <polygon fill="#E34C26" points="4.226 37.618 0.937 0.724 37.063 0.724 33.77 37.621 18.991 41.718"></polygon>
                    <polygon fill="#F06529" points="19 3.74 19 38.584 30.95 35.271 33.765 3.74"></polygon>
                    <polygon fill="#FFFFFF" points="7.667 8.266 8.887 21.949 24.57 21.949 24.044 27.818 18.994 29.183 13.954 27.821 13.617 24.052 9.075 24.052 9.724 31.316 18.993 33.891 28.274 31.316 29.517 17.425 13.025 17.425 12.612 12.791 29.914 12.791 29.928 12.791 30.333 8.266"></polygon>
                    <g transform="translate(7.000000, 8.000000)" fill="#EBEBEB">
                        <polygon points="12 0.266 0.667 0.266 1.887 13.949 12 13.949 12 9.425 6.025 9.425 5.612 4.791 12 4.791"></polygon>
                        <polygon points="12 21.181 11.994 21.183 6.954 19.821 6.617 16.052 2.075 16.052 2.724 23.316 11.993 25.891 12 25.889"></polygon>
                    </g>
                </g>
                <g id="HTML5" font-size="8" font-family="LucidaGrande-Bold, Lucida Grande" fill="#000000" font-weight="bold">
                    <text>
                        <tspan x="18.2425895" y="10">HTML5</tspan>
                    </text>
                </g>
            </g>
        </g>
    </g>
</svg>