<?xml version="1.0" ?><svg enable-background="new 0 0 32 32" version="1.1" viewBox="0 0 32 32" xml:space="preserve" xmlns="http://www.w3.org/2000/svg" xmlns:xlink="http://www.w3.org/1999/xlink"><g id="style_2_copy_5"><g><g><path d="M16,31.5C7.453,31.5,0.5,24.547,0.5,16S7.453,0.5,16,0.5S31.5,7.453,31.5,16S24.547,31.5,16,31.5z" fill="#FFFFFF"/></g><g><g><path d="M16,1c8.271,0,15,6.729,15,15s-6.729,15-15,15S1,24.271,1,16S7.729,1,16,1 M16,0C7.163,0,0,7.163,0,16      s7.163,16,16,16s16-7.163,16-16S24.837,0,16,0L16,0z" fill="#00BDFF"/></g></g><g><g><path d="M16,3.007c7.165,0,12.993,5.829,12.993,12.993S23.164,28.993,16,28.993S3.007,23.164,3.007,16S8.835,3.007,16,3.007"/></g></g><g><path d="M16,3.006C8.836,3.006,3.006,8.836,3.006,16c0,3.605,1.478,6.871,3.858,9.227L25.227,6.864     C22.871,4.485,19.605,3.006,16,3.006z" fill="#FFFFFF" opacity="0.3"/></g></g><g><path d="M21.555,8.593h-11.11c-1.046,0-1.852,0.806-1.852,1.852v11.11c0,1.045,0.806,1.852,1.852,1.852h11.11    c1.045,0,1.852-0.806,1.852-1.852v-11.11C23.407,9.399,22.6,8.593,21.555,8.593z M16.011,13.09c1.643,0,2.974,1.29,2.974,2.882    c0,1.591-1.331,2.882-2.974,2.882c-1.642,0-2.973-1.291-2.973-2.882C13.038,14.38,14.37,13.09,16.011,13.09z M21.555,21.092    c0,0.325-0.139,0.463-0.463,0.463H10.908c-0.324,0-0.463-0.138-0.463-0.463v-6.481l1.154,0.251    c-0.124,0.403-0.191,0.829-0.191,1.271c0,2.462,2.062,4.46,4.603,4.46c2.542,0,4.603-1.997,4.603-4.46    c0-0.442-0.067-0.868-0.191-1.271l1.132-0.251V21.092z M21.555,12.76c0,0.256-0.207,0.463-0.463,0.463H19.24    c-0.256,0-0.463-0.207-0.463-0.463v-1.852c0-0.256,0.207-0.463,0.463-0.463h1.852c0.256,0,0.463,0.207,0.463,0.463V12.76z" fill="#FFFFFF"/></g></g></svg>