<?xml version="1.0" encoding="UTF-8" standalone="no"?>
<svg width="420px" height="250px" viewBox="0 0 420 250" version="1.1" xmlns="http://www.w3.org/2000/svg" xmlns:xlink="http://www.w3.org/1999/xlink">
    <!-- Generator: Sketch 39.1 (31720) - http://www.bohemiancoding.com/sketch -->
    <title>targetLogo</title>
    <desc>Created with Sketch.</desc>
    <defs></defs>
    <g id="Page-1" stroke="none" stroke-width="1" fill="none" fill-rule="evenodd">
        <rect id="Rectangle" fill="#FFFFFF" x="0" y="0" width="420" height="250"></rect>
        <g id="Logo" transform="translate(124.000000, 87.000000)">
            <g id="Group">
                <g>
                    <ellipse id="Oval" stroke="#0071BC" stroke-width="5" cx="137.028062" cy="34.9155393" rx="34.9440389" ry="34.8043876"></ellipse>
                    <ellipse id="Oval" stroke="#0071BC" stroke-width="5" cx="137.028062" cy="34.9155393" rx="20.0875912" ry="20.0073126"></ellipse>
                    <ellipse id="Oval" fill="#666666" cx="136.972263" cy="34.9850091" rx="7.32360097" ry="7.29433272"></ellipse>
                    <rect id="Rectangle-path" fill="#666666" transform="translate(121.792986, 51.401031) rotate(135.000000) translate(-121.792986, -51.401031) " x="102.926176" y="46.8855347" width="37.7336203" height="9.030992"></rect>
                    <polygon id="Shape" fill="#666666" points="110.928143 64.0928702 98.2478508 67.4135283 96.9784266 62.4117002 109.658719 59.0771481"></polygon>
                    <polygon id="Shape" fill="#666666" points="111.332685 75.9722121 105.627251 75.152468 108.291646 62.078245 113.99708 62.911883"></polygon>
                    <g transform="translate(0.000000, 26.120658)" id="Shape" fill="#0071BC">
                        <polygon points="4.19886456 1.59780622 2.41330089 9.98976234 0.516139497 9.98976234 2.30170316 1.59780622 0 1.59780622 0.334793187 0.0416819013 6.82141119 0.0416819013 6.486618 1.59780622"></polygon>
                        <path d="M9.7648013,2.62595978 C10.1693431,2.62595978 10.5320357,2.69542962 10.8528792,2.83436929 C11.1876723,2.97330896 11.4387672,3.19561243 11.648013,3.48738574 C11.8572587,3.77915905 11.940957,4.16819013 11.940957,4.64058501 C11.940957,4.90457038 11.9130576,5.18244973 11.843309,5.47422303 L11.2992701,8.01681901 C11.2155718,8.41974406 11.1737226,8.80877514 11.1737226,9.15612431 C11.1737226,9.48957952 11.2155718,9.78135283 11.2992701,10.0036563 L9.52765612,10.0036563 C9.47185726,9.78135283 9.44395783,9.54515539 9.45790754,9.32285192 C9.17891322,9.61462523 8.8999189,9.82303473 8.60697486,9.96197441 C8.31403082,10.1009141 7.99318735,10.1703839 7.64444444,10.1703839 C7.26780211,10.1703839 6.93300892,10.1009141 6.66796431,9.94808044 C6.40291971,9.80914077 6.19367397,9.60073126 6.06812652,9.35063985 C5.92862936,9.10054845 5.85888078,8.80877514 5.85888078,8.48921389 C5.85888078,7.79451554 6.08207624,7.22486289 6.52846715,6.79414991 C6.97485807,6.36343693 7.63049473,6.04387569 8.49537713,5.80767824 L8.87201946,5.71042048 C9.22076237,5.61316271 9.48580697,5.54369287 9.66715328,5.488117 C9.86244931,5.43254113 10.0158962,5.37696527 10.1274939,5.33528336 L10.1553933,5.21023766 C10.1832928,5.08519196 10.1972425,4.94625229 10.1972425,4.80731261 C10.1972425,4.57111517 10.1414436,4.3904936 10.0158962,4.2654479 C9.90429846,4.14040219 9.72295215,4.07093236 9.48580697,4.07093236 C9.23471208,4.07093236 9.02546634,4.15429616 8.85806975,4.3071298 C8.69067315,4.45996344 8.53722628,4.68226691 8.39772912,4.98793419 L6.84931062,4.66837294 C7.11435523,4.00146252 7.49099757,3.50127971 7.96528792,3.15393053 C8.43957826,2.79268739 9.03941606,2.62595978 9.7648013,2.62595978 L9.7648013,2.62595978 Z M9.13706407,6.78025594 C8.84412003,6.87751371 8.59302514,6.97477148 8.41167883,7.07202925 C8.21638281,7.16928702 8.0350365,7.29433272 7.88158962,7.48884826 C7.71419303,7.66946984 7.64444444,7.90566728 7.64444444,8.18354662 C7.64444444,8.36416819 7.70024331,8.51700183 7.79789132,8.64204753 C7.90948905,8.76709324 8.07688564,8.8226691 8.3000811,8.8226691 C8.62092457,8.8226691 8.92781833,8.68372943 9.17891322,8.40585009 C9.44395783,8.12797075 9.62530414,7.73893967 9.72295215,7.25265082 L9.87639903,6.53016453 C9.63925385,6.61352834 9.38815896,6.69689214 9.13706407,6.78025594 L9.13706407,6.78025594 Z"></path>
                        <path d="M16.6559611,4.3904936 C16.2793187,4.3904936 15.972425,4.59890311 15.7213301,5.00182815 C15.4702352,5.4047532 15.2470397,6.05776965 15.0656934,6.91919561 L14.4100568,9.98976234 L12.582644,9.98976234 L14.1171127,2.77879342 L15.8329278,2.77879342 L15.5957826,3.87641682 C16.070073,3.04277879 16.6141119,2.62595978 17.2697486,2.62595978 C17.5487429,2.62595978 17.8137875,2.70932358 18.0788321,2.87605119 L17.2836983,4.54332724 C17.0465531,4.4321755 16.8373074,4.3904936 16.6559611,4.3904936 L16.6559611,4.3904936 Z"></path>
                        <path d="M20.6734793,2.62595978 C21.0640714,2.62595978 21.4128143,2.72321755 21.7057583,2.91773309 C21.9987024,3.11224863 22.2218978,3.39012797 22.361395,3.75137112 L22.5706407,2.79268739 L24.2585564,2.79268739 L22.654339,10.3510055 C22.5287916,10.9206581 22.3753447,11.379159 22.1800487,11.7404022 C21.9847526,12.1016453 21.6918086,12.3795247 21.2872668,12.6018282 C20.8827251,12.8241316 20.3386861,12.9213894 19.6412003,12.9213894 C19.1111111,12.9213894 18.6368208,12.8519196 18.232279,12.7268739 C17.8277372,12.5879342 17.5208435,12.3934186 17.3115977,12.1433272 C17.0884023,11.8932358 16.9907543,11.5875686 16.9907543,11.2402194 C16.9907543,11.1151737 17.004704,10.990128 17.0326034,10.8511883 L17.0605028,10.7122486 L19.0832117,10.9206581 L19.0832117,10.9345521 L19.0832117,11.0318099 C19.0832117,11.3235832 19.3064071,11.4764168 19.7388483,11.4764168 C19.9759935,11.4764168 20.1712895,11.4347349 20.3247364,11.3374771 C20.4781833,11.2402194 20.589781,11.1012797 20.6734793,10.9067642 C20.7571776,10.7122486 20.8408759,10.4621572 20.9106245,10.142596 L21.13382,9.05886654 C20.8687753,9.37842779 20.6037307,9.6285192 20.3526358,9.76745887 C20.101541,9.9202925 19.7946472,9.98976234 19.459854,9.98976234 C18.8879157,9.98976234 18.4415247,9.7952468 18.1206813,9.39232176 C17.7998378,8.98939671 17.6324412,8.39195612 17.6324412,7.6 C17.6324412,7.11371115 17.7021898,6.57184644 17.8277372,5.97440585 C18.036983,4.94625229 18.3857259,4.14040219 18.8460665,3.52906764 C19.264558,2.91773309 19.8922952,2.62595978 20.6734793,2.62595978 L20.6734793,2.62595978 Z M21.817356,5.3630713 C21.817356,4.97404022 21.7336577,4.68226691 21.5802109,4.4738574 C21.426764,4.2654479 21.2035685,4.16819013 20.9385239,4.16819013 C20.6037307,4.16819013 20.3386861,4.33491773 20.1294404,4.65447898 C19.9201946,4.97404022 19.7388483,5.46032907 19.5993512,6.09945155 C19.5017032,6.5857404 19.4459043,7.01645338 19.4459043,7.37769653 C19.4459043,8.10018282 19.6690998,8.46142596 20.1294404,8.46142596 C20.492133,8.46142596 20.8129765,8.28080439 21.0780211,7.93345521 C21.3430657,7.58610603 21.5662612,6.98866545 21.7336577,6.15502742 C21.7894566,5.83546618 21.817356,5.58537477 21.817356,5.3630713 L21.817356,5.3630713 Z"></path>
                        <path d="M30.9544201,5.29360146 C30.9544201,5.66873857 30.912571,6.07166362 30.814923,6.5023766 L30.7172749,6.96087751 L26.588159,6.96087751 C26.5602595,7.14149909 26.5463098,7.30822669 26.5463098,7.46106033 C26.5463098,7.85009141 26.6300081,8.15575868 26.783455,8.37806216 C26.9369019,8.60036563 27.1600973,8.71151737 27.4390916,8.71151737 C27.718086,8.71151737 27.9552311,8.62815356 28.1644769,8.44753199 C28.3597729,8.26691042 28.5132198,8.03071298 28.6248175,7.7250457 L30.368532,7.93345521 C30.1313869,8.58647166 29.7686942,9.12833638 29.2804542,9.53126143 C28.7922141,9.93418647 28.1784266,10.142596 27.4251419,10.142596 C26.8392539,10.142596 26.3510138,10.0314442 25.9604217,9.80914077 C25.5698297,9.58683729 25.2768856,9.26727605 25.0815896,8.86435101 C24.8862936,8.46142596 24.7886456,7.98903108 24.7886456,7.46106033 C24.7886456,7.18318099 24.816545,6.87751371 24.8723439,6.5440585 C25.1094891,5.21023766 25.5419303,4.223766 26.1557178,3.57074954 C26.7695053,2.93162706 27.5506894,2.59817185 28.4853204,2.59817185 C29.3223033,2.59817185 29.9360908,2.84826325 30.3406326,3.3345521 C30.7591241,3.84862888 30.9544201,4.50164534 30.9544201,5.29360146 L30.9544201,5.29360146 Z M26.881103,5.76599634 L29.1270073,5.76599634 C29.1549067,5.54369287 29.1688564,5.33528336 29.1688564,5.12687386 C29.1688564,4.77952468 29.1130576,4.51553931 28.9875101,4.33491773 C28.8619627,4.15429616 28.6666667,4.07093236 28.3876723,4.07093236 C28.0249797,4.07093236 27.718086,4.20987203 27.4530414,4.50164534 C27.1879968,4.77952468 26.9927007,5.19634369 26.881103,5.76599634 L26.881103,5.76599634 Z"></path>
                        <path d="M35.9902676,2.77879342 L35.6833739,4.223766 L34.595296,4.223766 L33.8559611,7.71115174 C33.8141119,7.93345521 33.7862125,8.10018282 33.7862125,8.21133455 C33.7862125,8.36416819 33.8141119,8.47531993 33.8838605,8.54478976 C33.9536091,8.6142596 34.0512571,8.64204753 34.1907543,8.64204753 C34.3163017,8.64204753 34.5115977,8.6142596 34.7766423,8.54478976 L34.6092457,9.89250457 C34.107056,10.0592322 33.7025142,10.142596 33.3956204,10.142596 C32.8934307,10.142596 32.5167883,10.0314442 32.2656934,9.7952468 C32.0145985,9.55904936 31.8890511,9.21170018 31.8890511,8.7393053 C31.8890511,8.51700183 31.9169505,8.28080439 31.9727494,8.01681901 L32.7818329,4.223766 L31.9587997,4.223766 L32.2656934,2.77879342 L33.0887267,2.77879342 L33.3816707,1.37550274 L35.432279,0.33345521 L34.9161395,2.77879342 L35.9902676,2.77879342 L35.9902676,2.77879342 Z"></path>
                        <path d="M41.0261152,8.01681901 L40.147283,9.98976234 L38.1245742,9.98976234 L43.1046229,0.0416819013 L45.1552311,0.0416819013 L45.8666667,9.98976234 L43.9555556,9.98976234 L43.9137064,8.01681901 L41.0261152,8.01681901 L41.0261152,8.01681901 Z M43.8021087,1.88957952 L41.7654501,6.39122486 L43.885807,6.39122486 L43.8021087,1.88957952 L43.8021087,1.88957952 Z"></path>
                        <path d="M51.7394972,2.62595978 C52.2695864,2.62595978 52.6601784,2.77879342 52.9112733,3.08446069 C53.1763179,3.39012797 53.3018654,3.80694698 53.3018654,4.3488117 C53.3018654,4.62669104 53.2739659,4.91846435 53.2042174,5.22413163 L52.1858881,9.98976234 L50.3584753,9.98976234 L51.3349554,5.43254113 C51.3907543,5.19634369 51.404704,4.98793419 51.404704,4.83510055 C51.404704,4.36270567 51.1954582,4.12650823 50.7909165,4.12650823 C50.4421736,4.12650823 50.1352798,4.32102377 49.9120843,4.69616088 C49.6749392,5.08519196 49.4656934,5.69652651 49.2843471,6.53016453 L48.5450122,9.97586837 L46.7175994,9.97586837 L48.2520681,2.76489945 L49.9539335,2.76489945 L49.730738,3.77915905 C50.0236821,3.376234 50.3445255,3.08446069 50.665369,2.88994516 C51.0001622,2.72321755 51.3489051,2.62595978 51.7394972,2.62595978 L51.7394972,2.62595978 Z"></path>
                        <path d="M53.8459043,9.98976234 L55.3803731,2.77879342 L57.2077859,2.77879342 L55.6733171,9.98976234 L53.8459043,9.98976234 L53.8459043,9.98976234 Z M55.6035685,1.77842779 L55.9662612,0.0416819013 L57.793674,0.0416819013 L57.4309813,1.77842779 L55.6035685,1.77842779 L55.6035685,1.77842779 Z"></path>
                        <path d="M65.7868613,2.62595978 C66.3030008,2.62595978 66.6935929,2.77879342 66.9586375,3.07056673 C67.2236821,3.36234004 67.3492295,3.77915905 67.3492295,4.32102377 C67.3492295,4.61279707 67.3073804,4.93235832 67.2376318,5.29360146 L66.2332522,10.0036563 L64.4058394,10.0036563 L65.3544201,5.55758684 C65.4241687,5.22413163 65.4520681,4.96014625 65.4520681,4.76563071 C65.4520681,4.52943327 65.410219,4.36270567 65.312571,4.2654479 C65.214923,4.16819013 65.0893755,4.12650823 64.9080292,4.12650823 C64.2942417,4.12650823 63.8199513,4.90457038 63.4851582,6.44680073 L62.7179238,10.0036563 L60.8905109,10.0036563 L61.8390916,5.58537477 C61.9088402,5.26581353 61.9367397,5.00182815 61.9367397,4.79341865 C61.9367397,4.54332724 61.8948905,4.37659963 61.7972425,4.2654479 C61.6995945,4.16819013 61.574047,4.11261426 61.3927007,4.11261426 C61.085807,4.11261426 60.8207624,4.29323583 60.5836172,4.65447898 C60.3604217,5.01572212 60.1790754,5.47422303 60.0674777,6.01608775 L59.216545,9.98976234 L57.3891322,9.98976234 L58.923601,2.77879342 L60.6394161,2.77879342 L60.4301703,3.75137112 C60.7510138,3.34844607 61.0718573,3.07056673 61.378751,2.87605119 C61.6856448,2.69542962 62.0343877,2.59817185 62.3970803,2.59817185 C62.7737226,2.59817185 63.0806164,2.69542962 63.3317113,2.88994516 C63.5688564,3.08446069 63.7223033,3.36234004 63.7641525,3.73747715 C64.0710462,3.34844607 64.3918897,3.05667276 64.7127332,2.87605119 C65.0475264,2.70932358 65.3962693,2.62595978 65.7868613,2.62595978 L65.7868613,2.62595978 Z"></path>
                        <path d="M71.8410381,2.62595978 C72.2455799,2.62595978 72.6082725,2.69542962 72.929116,2.83436929 C73.2639092,2.97330896 73.5150041,3.19561243 73.7242498,3.48738574 C73.9334955,3.77915905 74.0171938,4.16819013 74.0171938,4.64058501 C74.0171938,4.90457038 73.9892944,5.18244973 73.9195458,5.47422303 L73.3755069,8.01681901 C73.2918086,8.41974406 73.2499594,8.80877514 73.2499594,9.15612431 C73.2499594,9.48957952 73.2918086,9.78135283 73.3755069,10.0036563 L71.6038929,10.0036563 C71.5480941,9.78135283 71.5201946,9.54515539 71.5341444,9.32285192 C71.25515,9.61462523 70.9761557,9.82303473 70.6832117,9.96197441 C70.3902676,10.1009141 70.0694242,10.1703839 69.7206813,10.1703839 C69.3440389,10.1703839 69.0092457,10.1009141 68.7442011,9.94808044 C68.4791565,9.80914077 68.2699108,9.60073126 68.1443633,9.35063985 C68.0048662,9.10054845 67.9351176,8.80877514 67.9351176,8.48921389 C67.9351176,7.79451554 68.1583131,7.22486289 68.604704,6.79414991 C69.0510949,6.36343693 69.7067315,6.04387569 70.5716139,5.80767824 L70.9482563,5.71042048 C71.2969992,5.61316271 71.5620438,5.54369287 71.7433901,5.488117 C71.9386861,5.43254113 72.092133,5.37696527 72.2037307,5.33528336 L72.2316302,5.21023766 C72.2595296,5.08519196 72.2734793,4.94625229 72.2734793,4.80731261 C72.2734793,4.57111517 72.2176805,4.3904936 72.092133,4.2654479 C71.9805353,4.14040219 71.799189,4.07093236 71.5620438,4.07093236 C71.3109489,4.07093236 71.1017032,4.15429616 70.9343066,4.3071298 C70.76691,4.45996344 70.6134631,4.68226691 70.4739659,4.98793419 L68.9255474,4.66837294 C69.1905921,4.00146252 69.5672344,3.50127971 70.0415247,3.15393053 C70.5158151,2.79268739 71.1156529,2.62595978 71.8410381,2.62595978 L71.8410381,2.62595978 Z M71.2133009,6.78025594 C70.9203569,6.87751371 70.669262,6.97477148 70.4879157,7.07202925 C70.2926196,7.16928702 70.1112733,7.29433272 69.9578264,7.48884826 C69.7904298,7.66946984 69.7206813,7.90566728 69.7206813,8.18354662 C69.7206813,8.36416819 69.7764801,8.51700183 69.8741281,8.64204753 C69.9857259,8.76709324 70.1531225,8.8226691 70.3763179,8.8226691 C70.6971614,8.8226691 71.0040552,8.68372943 71.25515,8.40585009 C71.5201946,8.12797075 71.701541,7.73893967 71.799189,7.25265082 L71.9526358,6.53016453 C71.7154907,6.61352834 71.4783455,6.69689214 71.2133009,6.78025594 L71.2133009,6.78025594 Z"></path>
                        <path d="M79.2064882,2.77879342 L78.8995945,4.223766 L77.8115166,4.223766 L77.0721817,7.71115174 C77.0303325,7.93345521 77.0024331,8.10018282 77.0024331,8.21133455 C77.0024331,8.36416819 77.0303325,8.47531993 77.1000811,8.54478976 C77.1698297,8.6142596 77.2674777,8.64204753 77.4069749,8.64204753 C77.5325223,8.64204753 77.7278183,8.6142596 77.9928629,8.54478976 L77.8254663,9.89250457 C77.3232766,10.0592322 76.9187348,10.142596 76.611841,10.142596 C76.1096513,10.142596 75.7330089,10.0314442 75.481914,9.7952468 C75.2308191,9.55904936 75.1052717,9.21170018 75.1052717,8.7393053 C75.1052717,8.51700183 75.1331711,8.28080439 75.18897,8.01681901 L75.9980535,4.223766 L75.1750203,4.223766 L75.4679643,2.77879342 L76.2909976,2.77879342 L76.5839416,1.37550274 L78.6345499,0.33345521 L78.1184104,2.77879342 L79.2064882,2.77879342 L79.2064882,2.77879342 Z"></path>
                        <path d="M78.7600973,9.98976234 L80.2945661,2.77879342 L82.1219789,2.77879342 L80.5875101,9.98976234 L78.7600973,9.98976234 L78.7600973,9.98976234 Z M80.5177616,1.77842779 L80.8804542,0.0416819013 L82.7218167,0.0416819013 L82.3591241,1.77842779 L80.5177616,1.77842779 L80.5177616,1.77842779 Z"></path>
                        <path d="M85.260665,10.1703839 C84.7584753,10.1703839 84.3120843,10.0731261 83.935442,9.8786106 C83.54485,9.68409506 83.2519059,9.39232176 83.0287105,8.98939671 C82.805515,8.58647166 82.707867,8.10018282 82.707867,7.50274223 C82.707867,7.14149909 82.7497161,6.75246801 82.8334144,6.32175503 C83.0705596,5.12687386 83.4611517,4.223766 84.0191403,3.57074954 C84.577129,2.93162706 85.3164639,2.61206581 86.2371452,2.61206581 C87.0741281,2.61206581 87.7018654,2.84826325 88.1064071,3.30676417 C88.5248986,3.76526508 88.7201946,4.41828154 88.7201946,5.2797075 C88.7201946,5.66873857 88.6783455,6.08555759 88.5946472,6.53016453 C88.3714517,7.7250457 87.9948094,8.62815356 87.4507705,9.23948812 C86.9067315,9.85082267 86.1813463,10.1703839 85.260665,10.1703839 L85.260665,10.1703839 Z M86.7811841,6.40511883 C86.8788321,5.97440585 86.934631,5.61316271 86.934631,5.30749543 C86.934631,4.93235832 86.8648824,4.65447898 86.7114355,4.4738574 C86.5579886,4.29323583 86.3487429,4.20987203 86.0557989,4.20987203 C85.7907543,4.20987203 85.5675588,4.29323583 85.3862125,4.45996344 C85.2048662,4.62669104 85.065369,4.86288848 84.9537713,5.18244973 C84.8421736,5.488117 84.7305758,5.89104205 84.6468775,6.39122486 C84.5492295,6.82193784 84.5073804,7.18318099 84.5073804,7.4749543 C84.5073804,8.21133455 84.7863747,8.5725777 85.3583131,8.5725777 C85.7210057,8.5725777 86.0278994,8.39195612 86.2371452,8.04460695 C86.4603406,7.69725777 86.6416869,7.14149909 86.7811841,6.40511883 L86.7811841,6.40511883 Z"></path>
                        <path d="M94.3419303,2.62595978 C94.8720195,2.62595978 95.2626115,2.77879342 95.5137064,3.08446069 C95.778751,3.39012797 95.9042985,3.80694698 95.9042985,4.3488117 C95.9042985,4.62669104 95.876399,4.91846435 95.8066504,5.22413163 L94.7883212,9.98976234 L92.9609084,9.98976234 L93.9373885,5.43254113 C93.9931873,5.19634369 94.0071371,4.98793419 94.0071371,4.83510055 C94.0071371,4.36270567 93.7978913,4.12650823 93.3933496,4.12650823 C93.0446067,4.12650823 92.7377129,4.32102377 92.5145174,4.69616088 C92.2773723,5.08519196 92.0681265,5.69652651 91.8867802,6.53016453 L91.1474453,9.97586837 L89.3200324,9.97586837 L90.8545012,2.76489945 L92.5563666,2.76489945 L92.3331711,3.77915905 C92.6261152,3.376234 92.9469586,3.08446069 93.2678021,2.88994516 C93.5886456,2.72321755 93.9513382,2.62595978 94.3419303,2.62595978 L94.3419303,2.62595978 Z"></path>
                    </g>
                </g>
            </g>
        </g>
    </g>
</svg>